<svg xmlns="http://www.w3.org/2000/svg" version="1.1" xmlns:xlink="http://www.w3.org/1999/xlink" xmlns:svgjs="http://svgjs.dev/svgjs" width="1000" height="95" viewBox="0 0 1000 95"><g transform="matrix(1,0,0,1,-0.6060606060606233,-0.3537818102434187)"><svg viewBox="0 0 396 38" data-background-color="#101935" preserveAspectRatio="xMidYMid meet" height="95" width="1000" xmlns="http://www.w3.org/2000/svg" xmlns:xlink="http://www.w3.org/1999/xlink"><defs></defs><g id="tight-bounds" transform="matrix(1,0,0,1,0.2400000000000091,0.14151272409736748)"><svg viewBox="0 0 395.52 37.71697455180528" height="37.71697455180528" width="395.52"><g><svg viewBox="0 0 395.52 37.71697455180528" height="37.71697455180528" width="395.52"><g><svg viewBox="0 0 445.2299909282187 42.457342833586466" height="37.71697455180528" width="395.52"><g transform="matrix(1,0,0,1,0,5.86783826426557)"><svg viewBox="0 0 395.52 30.721666305055326" height="30.721666305055326" width="395.52"><g><svg viewBox="0 0 395.52 30.721666305055326" height="30.721666305055326" width="395.52"><g><svg viewBox="0 0 395.52 30.721666305055326" height="30.721666305055326" width="395.52"><g transform="matrix(1,0,0,1,0,0)"><svg width="395.52" viewBox="4.25 -35.150001525878906 460.8599853515625 35.80000305175781" height="30.721666305055326" data-palette-color="#ffeaec"><path d="M4.25-34.5L8.6-34.5 8.6-7Q8.6-5.3 9.43-4.5 10.25-3.7 11.95-3.7L11.95-3.7 24.4-3.7 24.6-0.3Q21.35-0.05 17.98 0 14.6 0.05 11.25 0.05L11.25 0.05Q7.45 0.05 5.85-1.8 4.25-3.65 4.25-6.45L4.25-6.45 4.25-34.5ZM38.95-34.5L43.55-34.5Q44.15-34.5 44.6-34.18 45.05-33.85 45.2-33.3L45.2-33.3 56.3 0 51.75 0 42.8-28.3Q42.6-29 42.37-29.73 42.15-30.45 41.95-31.1L41.95-31.1 40.55-31.1Q40.35-30.45 40.15-29.73 39.95-29 39.7-28.3L39.7-28.3 30.75 0 26.2 0 37.3-33.3Q37.45-33.85 37.9-34.18 38.35-34.5 38.95-34.5L38.95-34.5ZM32.45-14.6L49.95-14.6 49.95-10.8 32.45-10.8 32.45-14.6ZM83.34-34.5L87.7-34.5 87.7-1.75Q87.7 0 86 0L86 0 81.7 0Q80.95 0 80.5-0.35 80.05-0.7 79.75-1.4L79.75-1.4 68.09-25.85Q67.65-26.85 67.05-28.1 66.45-29.35 66.14-30.4L66.14-30.4 65.34-30.4Q65.45-29.3 65.5-28.15 65.55-27 65.55-25.85L65.55-25.85 65.55 0 61.15 0 61.15-32.75Q61.15-34.5 62.9-34.5L62.9-34.5 67.05-34.5Q67.8-34.5 68.25-34.15 68.7-33.8 69-33.1L69-33.1 80.3-9.25Q80.84-8.2 81.47-6.88 82.09-5.55 82.65-4.25L82.65-4.25 83.5-4.25Q83.45-5.6 83.4-6.9 83.34-8.2 83.34-9.5L83.34-9.5 83.34-34.5ZM108.69-34.95L108.69-34.95Q112.39-34.95 114.97-34.05 117.54-33.15 119.12-31.1 120.69-29.05 121.42-25.65 122.14-22.25 122.14-17.25L122.14-17.25Q122.14-12.25 121.42-8.85 120.69-5.45 119.12-3.4 117.54-1.35 114.97-0.45 112.39 0.45 108.69 0.45L108.69 0.45Q105.14 0.45 102.12 0.33 99.09 0.2 96.39 0L96.39 0 98.29-3.6Q100.39-3.55 102.97-3.48 105.54-3.4 108.69-3.4L108.69-3.4Q111.99-3.4 113.94-4.67 115.89-5.95 116.72-8.97 117.54-12 117.54-17.25L117.54-17.25Q117.54-22.5 116.72-25.53 115.89-28.55 113.94-29.85 111.99-31.15 108.69-31.15L108.69-31.15Q105.59-31.15 103.12-31.1 100.64-31.05 98.29-31L98.29-31 96.39-34.5Q99.09-34.7 102.12-34.83 105.14-34.95 108.69-34.95ZM96.39-34.5L100.79-34.5 100.79 0 96.39 0 96.39-34.5ZM141.94-35.15L141.94-35.15Q145.69-35.15 148.31-34.25 150.94-33.35 152.52-31.28 154.09-29.2 154.81-25.75 155.54-22.3 155.54-17.25L155.54-17.25Q155.54-12.2 154.81-8.75 154.09-5.3 152.52-3.23 150.94-1.15 148.31-0.25 145.69 0.65 141.94 0.65L141.94 0.65Q138.19 0.65 135.56-0.25 132.94-1.15 131.34-3.23 129.74-5.3 129.02-8.75 128.29-12.2 128.29-17.25L128.29-17.25Q128.29-22.3 129.02-25.75 129.74-29.2 131.34-31.28 132.94-33.35 135.56-34.25 138.19-35.15 141.94-35.15ZM141.94-31.2L141.94-31.2Q138.54-31.2 136.56-29.9 134.59-28.6 133.77-25.58 132.94-22.55 132.94-17.25L132.94-17.25Q132.94-12 133.77-8.95 134.59-5.9 136.56-4.6 138.54-3.3 141.94-3.3L141.94-3.3Q145.34-3.3 147.31-4.6 149.29-5.9 150.12-8.95 150.94-12 150.94-17.25L150.94-17.25Q150.94-22.55 150.12-25.58 149.29-28.6 147.31-29.9 145.34-31.2 141.94-31.2ZM185.19-34.5L189.54-34.5 189.54-1.75Q189.54 0 187.84 0L187.84 0 183.54 0Q182.79 0 182.34-0.35 181.89-0.7 181.59-1.4L181.59-1.4 169.94-25.85Q169.49-26.85 168.89-28.1 168.29-29.35 167.99-30.4L167.99-30.4 167.19-30.4Q167.29-29.3 167.34-28.15 167.39-27 167.39-25.85L167.39-25.85 167.39 0 162.99 0 162.99-32.75Q162.99-34.5 164.74-34.5L164.74-34.5 168.89-34.5Q169.64-34.5 170.09-34.15 170.54-33.8 170.84-33.1L170.84-33.1 182.14-9.25Q182.69-8.2 183.31-6.88 183.94-5.55 184.49-4.25L184.49-4.25 185.34-4.25Q185.29-5.6 185.24-6.9 185.19-8.2 185.19-9.5L185.19-9.5 185.19-34.5ZM216.18-34.5L220.58-34.5 220.58 0 216.18 0 216.18-34.5ZM205.08-34.5L231.73-34.5 231.73-30.6 205.08-30.6 205.08-34.5ZM237.28-34.5L241.68-34.5 241.68 0 237.28 0 237.28-34.5ZM241.28-20.35L258.13-20.35 258.13-16.55 241.28-16.55 241.28-20.35ZM257.58-34.5L261.98-34.5 261.98 0 257.58 0 257.58-34.5ZM270.68-34.5L275.08-34.5 275.08 0 270.68 0 270.68-34.5ZM294.98-34.9L294.98-34.9Q299.23-34.9 301.73-34.13 304.23-33.35 305.35-31.4 306.48-29.45 306.48-25.9L306.48-25.9Q306.48-22.2 305.1-20.25 303.73-18.3 300.63-18L300.63-18 300.63-17.8Q304.48-17.45 306-15.1 307.53-12.75 307.53-8.6L307.53-8.6Q307.53-5.05 306.43-3.1 305.33-1.15 302.9-0.38 300.48 0.4 296.53 0.4L296.53 0.4Q293.58 0.4 291.45 0.38 289.33 0.35 287.53 0.25 285.73 0.15 283.78 0L283.78 0 284.48-3.5Q285.58-3.45 288.65-3.4 291.73-3.35 295.83-3.35L295.83-3.35Q298.58-3.35 300.15-3.83 301.73-4.3 302.4-5.6 303.08-6.9 303.08-9.35L303.08-9.35Q303.08-12.05 302.38-13.5 301.68-14.95 300.03-15.55 298.38-16.15 295.53-16.2L295.53-16.2 284.43-16.2 284.43-19.55 295.48-19.55Q297.98-19.6 299.45-20.08 300.93-20.55 301.58-21.83 302.23-23.1 302.23-25.4L302.23-25.4Q302.23-27.75 301.53-29 300.83-30.25 299.2-30.7 297.58-31.15 294.78-31.15L294.78-31.15Q292.33-31.15 290.38-31.15 288.43-31.15 286.95-31.13 285.48-31.1 284.48-31L284.48-31 283.78-34.5Q285.53-34.7 287.1-34.77 288.68-34.85 290.55-34.88 292.43-34.9 294.98-34.9ZM283.78-34.5L288.08-34.5 288.08 0 283.78 0 283.78-34.5ZM327.12-35.15L327.12-35.15Q330.87-35.15 333.5-34.25 336.12-33.35 337.7-31.28 339.27-29.2 340-25.75 340.72-22.3 340.72-17.25L340.72-17.25Q340.72-12.2 340-8.75 339.27-5.3 337.7-3.23 336.12-1.15 333.5-0.25 330.87 0.65 327.12 0.65L327.12 0.65Q323.37 0.65 320.75-0.25 318.12-1.15 316.52-3.23 314.92-5.3 314.2-8.75 313.47-12.2 313.47-17.25L313.47-17.25Q313.47-22.3 314.2-25.75 314.92-29.2 316.52-31.28 318.12-33.35 320.75-34.25 323.37-35.15 327.12-35.15ZM327.12-31.2L327.12-31.2Q323.72-31.2 321.75-29.9 319.77-28.6 318.95-25.58 318.12-22.55 318.12-17.25L318.12-17.25Q318.12-12 318.95-8.95 319.77-5.9 321.75-4.6 323.72-3.3 327.12-3.3L327.12-3.3Q330.52-3.3 332.5-4.6 334.47-5.9 335.3-8.95 336.12-12 336.12-17.25L336.12-17.25Q336.12-22.55 335.3-25.58 334.47-28.6 332.5-29.9 330.52-31.2 327.12-31.2ZM360.47-34.95L360.47-34.95Q364.17-34.95 366.75-34.05 369.32-33.15 370.9-31.1 372.47-29.05 373.2-25.65 373.92-22.25 373.92-17.25L373.92-17.25Q373.92-12.25 373.2-8.85 372.47-5.45 370.9-3.4 369.32-1.35 366.75-0.45 364.17 0.45 360.47 0.45L360.47 0.45Q356.92 0.45 353.9 0.33 350.87 0.2 348.17 0L348.17 0 350.07-3.6Q352.17-3.55 354.75-3.48 357.32-3.4 360.47-3.4L360.47-3.4Q363.77-3.4 365.72-4.67 367.67-5.95 368.5-8.97 369.32-12 369.32-17.25L369.32-17.25Q369.32-22.5 368.5-25.53 367.67-28.55 365.72-29.85 363.77-31.15 360.47-31.15L360.47-31.15Q357.37-31.15 354.9-31.1 352.42-31.05 350.07-31L350.07-31 348.17-34.5Q350.87-34.7 353.9-34.83 356.92-34.95 360.47-34.95ZM348.17-34.5L352.57-34.5 352.57 0 348.17 0 348.17-34.5ZM387.72-34.55L387.72-34.55Q390.22-34.55 392.74-34.55 395.27-34.55 397.74-34.48 400.22-34.4 402.52-34.25L402.52-34.25 402.32-30.8 388.47-30.8Q386.92-30.8 386.19-30.03 385.47-29.25 385.47-27.5L385.47-27.5 385.47-7Q385.47-5.25 386.19-4.45 386.92-3.65 388.47-3.65L388.47-3.65 402.32-3.65 402.52-0.25Q400.22-0.1 397.74-0.05 395.27 0 392.74 0.03 390.22 0.05 387.72 0.05L387.72 0.05Q384.67 0.05 382.89-1.58 381.12-3.2 381.07-5.95L381.07-5.95 381.07-28.55Q381.12-31.35 382.89-32.95 384.67-34.55 387.72-34.55ZM381.97-16.45L381.97-20 400.37-20 400.37-16.45 381.97-16.45ZM418.27-34.5L422.87-34.5Q423.47-34.5 423.92-34.18 424.37-33.85 424.52-33.3L424.52-33.3 435.62 0 431.07 0 422.12-28.3Q421.92-29 421.69-29.73 421.47-30.45 421.27-31.1L421.27-31.1 419.87-31.1Q419.67-30.45 419.47-29.73 419.27-29 419.02-28.3L419.02-28.3 410.07 0 405.52 0 416.62-33.3Q416.77-33.85 417.22-34.18 417.67-34.5 418.27-34.5L418.27-34.5ZM411.77-14.6L429.27-14.6 429.27-10.8 411.77-10.8 411.77-14.6ZM460.71-34.5L465.11-34.5 465.11-13.2Q465.11-8.2 463.91-5.15 462.71-2.1 460.01-0.73 457.31 0.65 452.76 0.65L452.76 0.65Q448.11 0.65 445.31-0.73 442.51-2.1 441.26-5.15 440.01-8.2 440.01-13.2L440.01-13.2 440.01-34.5 444.41-34.5 444.41-13.2Q444.41-9.5 445.19-7.33 445.96-5.15 447.76-4.23 449.56-3.3 452.56-3.3L452.56-3.3Q455.56-3.3 457.34-4.23 459.11-5.15 459.91-7.33 460.71-9.5 460.71-13.2L460.71-13.2 460.71-34.5Z" opacity="1" transform="matrix(1,0,0,1,0,0)" fill="#ffeaec" class="undefined-text-0" data-fill-palette-color="primary" id="text-0"></path></svg></g></svg></g></svg></g></svg></g><g transform="matrix(1,0,0,1,402.77264809463225,0)"><svg viewBox="0 0 42.457342833586466 42.457342833586466" height="42.457342833586466" width="42.457342833586466"><g data-palette-color="#007ea7"><rect width="11.6050070411803" height="42.457342833586466" fill="#007ea7" stroke="transparent" data-fill-palette-color="accent" x="0" fill-opacity="1"></rect><rect width="11.6050070411803" height="42.457342833586466" fill="#007ea7" stroke="transparent" data-fill-palette-color="accent" x="14.152447611195488" fill-opacity="0.75"></rect><rect width="11.6050070411803" height="42.457342833586466" fill="#007ea7" stroke="transparent" data-fill-palette-color="accent" x="28.304895222390975" fill-opacity="0.5"></rect></g></svg></g></svg></g></svg></g></svg><rect width="395.52" height="37.71697455180528" fill="none" stroke="none" visibility="hidden"></rect></g></svg></g></svg>